# xmcd
# 
# Track frame offsets:
#     150
#     30230
#     48432
#     89940
#     113554
#     148992
#     197300
#     245555
# 
# Disc length: 3875
# 
# Revision: 0
# Processed by: cddbd v1.5.2PL0 Copyright (c) Steve Scherf et al.
# Submitted via: fre:ac v1.0.17
# 
DISCID=6a0f2108
DTITLE=Joe Bonamassal - Live from the Royal Albert Hall
DYEAR=2010
DGENRE=Blues
TTITLE0=Happier Times
TTITLE1=Your Funeral My Trial
TTITLE2=CD2
TTITLE3=CD2
TTITLE4=CD2
TTITLE5=CD2
TTITLE6=CD2
TTITLE7=CD2
EXTD=
EXTT0=
EXTT1=
EXTT2=
EXTT3=
EXTT4=
EXTT5=
EXTT6=
EXTT7=
PLAYORDER=
